# xmcd
#
# Track frame offsets: 
#        150
#        17185
#        32679
#        53516
#        71685
#        87527
#        105107
#        128272
#        145117
#        160612
#        184125
#
# Disc length: 2605 seconds
#
# Revision: 4
# Processed by: cddbd v1.5.2PL0 Copyright (c) Steve Scherf et al.
# Submitted via: ExactAudioCopyFreeDBPlugin 1.0
#
DISCID=800a2b0b
DTITLE=David Gates - 1994 - Love Is Always Seventeen
DYEAR=1994
DGENRE=Country
TTITLE0=Avenue Of Love
TTITLE1=Love Is Always Seventeen
TTITLE2=Ordinary Man
TTITLE3=I Will Wait For You
TTITLE4=Save This Dance For Me
TTITLE5=No Secrets In A Small Town
TTITLE6=Heart, Its All Over
TTITLE7=I Don't Want To Share Your Love
TTITLE8=I Can't Find The Words To Say Goodbye
TTITLE9=Dear World
TTITLE10=Thankin' You Sweet Baby James
EXTD=
EXTT0=
EXTT1=
EXTT2=
EXTT3=
EXTT4=
EXTT5=
EXTT6=
EXTT7=
EXTT8=
EXTT9=
EXTT10=
PLAYORDER=
